<?xml version="1.0" encoding="UTF-8" standalone="no"?>
<!-- Created with Inkscape (http://www.inkscape.org/) -->

<svg
   width="484"
   height="450"
   viewBox="0 0 128.05833 119.0625"
   version="1.1"
   id="svg2087"
   inkscape:version="1.2.2 (732a01da63, 2022-12-09)"
   sodipodi:docname="mappol1.svg"
   xmlns:inkscape="http://www.inkscape.org/namespaces/inkscape"
   xmlns:sodipodi="http://sodipodi.sourceforge.net/DTD/sodipodi-0.dtd"
   xmlns="http://www.w3.org/2000/svg"
   xmlns:svg="http://www.w3.org/2000/svg">
  <sodipodi:namedview
     id="namedview2089"
     pagecolor="#ffffff"
     bordercolor="#000000"
     borderopacity="0.25"
     inkscape:showpageshadow="2"
     inkscape:pageopacity="0.0"
     inkscape:pagecheckerboard="0"
     inkscape:deskcolor="#d1d1d1"
     inkscape:document-units="mm"
     showgrid="false"
     inkscape:zoom="1.1893044"
     inkscape:cx="394.34816"
     inkscape:cy="158.07559"
     inkscape:window-width="1680"
     inkscape:window-height="987"
     inkscape:window-x="-8"
     inkscape:window-y="-8"
     inkscape:window-maximized="1"
     inkscape:current-layer="layer1">
    <sodipodi:guide
       position="0,119.0625"
       orientation="0,484"
       id="guide9202"
       inkscape:locked="false" />
    <sodipodi:guide
       position="128.05833,119.0625"
       orientation="450,0"
       id="guide9204"
       inkscape:locked="false" />
    <sodipodi:guide
       position="128.05833,0"
       orientation="0,-484"
       id="guide9206"
       inkscape:locked="false" />
    <sodipodi:guide
       position="0,0"
       orientation="-450,0"
       id="guide9208"
       inkscape:locked="false" />
  </sodipodi:namedview>
  <defs
     id="defs2084" />
  <g
     inkscape:label="Warstwa 1"
     inkscape:groupmode="layer"
     id="layer1">
    <path
       d="m 111.19613,118.71618 c -1.02523,-0.35452 -2.16908,-0.73165 -2.5419,-0.83805 -0.3728,-0.1064 -1.05912,-0.43954 -1.52513,-0.74027 -0.46601,-0.30077 -1.41193,-0.71966 -2.10205,-0.93093 -0.72006,-0.22043 -1.34588,-0.65516 -1.4686,-1.02018 -0.35279,-1.04927 -2.47836,-2.84371 -3.36848,-2.84371 -0.448787,0 -0.918276,-0.15624 -1.043286,-0.34719 -0.13048,-0.19931 -0.96909,-0.30518 -1.96878,-0.24857 -0.95782,0.0542 -1.97905,-0.0415 -2.2694,-0.2127 -0.59579,-0.35137 -1.79523,-3.30611 -2.36806,-5.83357 -0.24272,-1.07095 -0.61745,-1.80223 -1.03043,-2.01088 -0.77504,-0.39155 -0.84964,-1.12404 -0.14063,-1.38088 0.27962,-0.10128 0.50838,-0.387 0.50838,-0.63492 0,-0.24793 -0.22876,-0.63002 -0.50838,-0.84908 -0.33936,-0.26587 -0.50837,-0.984517 -0.50837,-2.161638 0,-0.96984 -0.17232,-2.30627 -0.38293,-2.96986 -0.35139,-1.10714 -0.30204,-1.32022 0.59915,-2.58691 0.54015,-0.75921 1.86435,-1.9644 2.94267,-2.67818 1.07833,-0.7138 2.29572,-1.81087 2.70531,-2.43794 2.42943,-3.7194 2.772689,-4.1019 3.690246,-4.11207 0.50161,-0.006 1.00628,-0.15409 1.12149,-0.33005 0.1152,-0.17597 0.50549,-0.31994 0.86729,-0.31994 0.55665,0 0.65784,0.22834 0.65784,1.48444 0,1.70708 0.5926,2.32871 2.23517,2.34465 0.9062,0.009 2.17077,0.80308 2.17077,1.36349 0,0.10074 -0.5338,0.48047 -1.18621,0.84385 -0.9785,0.54499 -1.18622,0.84746 -1.18622,1.72728 0,1.40804 0.51818,1.83443 2.22937,1.83443 0.77877,0 1.96348,0.21596 2.63268,0.4799 0.66919,0.26395 2.10053,0.47992 3.18074,0.47992 1.68601,0 2.01139,-0.0982 2.29859,-0.6937 0.73589,-1.52583 2.25678,-1.5645 4.00006,-0.1017 l 0.95416,0.80064 -1.51386,1.87911 c -0.83262,1.03351 -1.70423,2.22009 -1.93691,2.63686 -0.23269,0.41677 -0.53074,0.82975 -0.66232,0.91773 -0.36037,0.24095 -3.04846,4.501548 -3.04846,4.831778 0,0.15798 -0.12762,0.28724 -0.28359,0.28724 -0.15596,0 -0.79875,0.92899 -1.4284,2.06441 l -1.14483,2.06442 0.60799,1.59608 c 0.45625,1.19773 0.55011,2.03337 0.37607,3.34828 -0.26838,2.02782 0.4268,3.55328 1.76361,3.87 0.60319,0.14291 0.78699,0.40921 0.78699,1.14019 0,1.12526 -0.22241,1.1489 -2.71135,0.28822 z"
       style="fill:#94add6;fill-opacity:1;stroke-width:0.264583"
       id="path1364" />
    <path
       d="m 75.083164,116.48331 c -0.61146,-0.63781 -0.89664,-0.65359 -2.3543,-0.13025 -0.55739,0.2001 -0.60256,0.16675 -0.25419,-0.18766 0.23301,-0.23708 0.42365,-1.12209 0.42365,-1.96673 0,-1.53417 -0.001,-1.5357 -1.15609,-1.5357 -1.40844,0 -2.91094,-1.48124 -2.91094,-2.86976 0,-0.50579 -0.223,-0.98183 -0.50837,-1.08518 -0.27961,-0.1013 -0.50838,-0.45516 -0.50838,-0.78636 0,-1.47909 -0.72948,-2.5673 -2.05713,-3.06877 -1.22582,-0.46301 -1.33206,-0.60097 -1.33206,-1.72971 0,-0.88957 -0.22921,-1.42985 -0.83427,-1.96644 l -0.83428,-0.73988 0.74955,-0.918437 c 0.41225,-0.505141 1.32147,-1.504791 2.02049,-2.221451 1.34038,-1.37421 1.61443,-2.33767 0.75362,-2.64949 -0.93156,-0.33745 1.90088,-2.44057 3.28691,-2.44057 1.44077,0 2.93348,-0.62611 3.1755,-1.33196 0.13748,-0.40096 0.68685,-0.55867 2.22885,-0.63987 2.75576,-0.14512 3.01038,0.0375 3.01038,2.15896 0,1.65443 0.58711,3.09665 1.5173,3.72722 0.5828,0.39507 2.90068,0.27131 3.8531,-0.20572 0.89908,-0.45032 5.22712,-1.789 5.78395,-1.789 0.40699,0 0.77615,1.98862 0.83865,4.51776 0.0307,1.240781 0.24218,2.334148 0.51062,2.639498 0.30047,0.34176 0.32728,0.52127 0.0779,0.52127 -0.6818,0 -0.44768,2.18306 0.27318,2.54725 0.43161,0.21805 0.78891,0.94555 1.05204,2.14204 0.21914,0.99651 0.69143,2.45705 1.04952,3.24566 0.35809,0.7886 0.56915,1.51114 0.46903,1.60566 -0.10012,0.0945 -1.17155,0.14611 -2.38095,0.11467 -2.09805,-0.0546 -2.1989,-0.0228 -2.1989,0.69307 0,1.63418 -2.25264,2.41638 -3.02672,1.051 -0.39631,-0.69904 -0.64962,-0.76114 -3.24174,-0.79449 -2.64043,-0.034 -2.84547,0.0123 -3.36329,0.7583 -0.30329,0.43697 -0.81946,0.79448 -1.14703,0.79448 -0.37307,0 -0.92007,0.59798 -1.46405,1.60048 -0.86637,1.59664 -0.86996,1.59889 -1.50151,0.94011 z"
       style="fill:#94add6;fill-opacity:1;stroke-width:0.264583"
       id="path1340" />
    <path
       d="m 61.714004,112.37001 c 0,-0.16111 -0.60269,-0.83209 -1.33932,-1.49103 -1.11502,-0.99741 -1.35625,-1.43849 -1.44041,-2.63368 -0.0627,-0.89085 -0.29399,-1.51951 -0.60946,-1.65669 -2.62499,-1.14136 -2.54188,-1.04652 -2.54188,-2.90075 0,-1.69992 -0.025,-1.74539 -1.01676,-1.84742 -0.55922,-0.0575 -1.16164,-0.2375 -1.33873,-0.39992 -0.17708,-0.16243 -0.68004,-0.29532 -1.11769,-0.29532 -0.95904,0 -3.84769,-2.743198 -3.58058,-3.400298 0.0981,-0.24143 0.52933,-0.43897 0.9582,-0.43897 0.42887,0 1.56881,-0.38644 2.53321,-0.85877 1.56673,-0.76733 1.73175,-0.94619 1.54967,-1.67968 -0.58,-2.33645 -0.59205,-3.09285 -0.056,-3.51283 0.29893,-0.23421 0.54352,-0.62046 0.54352,-0.85834 0,-0.23789 0.45754,-0.65587 1.01676,-0.92886 0.55921,-0.27299 1.01675,-0.58362 1.01675,-0.69031 0,-0.3299 -1.47941,-2.50248 -1.7856,-2.62223 -0.15914,-0.0622 -0.0447,-0.36833 0.25424,-0.68018 0.29897,-0.31186 0.63495,-1.12477 0.74662,-1.80647 0.11167,-0.6817 0.50378,-1.51226 0.87135,-1.8457 0.53038,-0.48112 0.63375,-0.89573 0.50084,-2.00883 -0.19311,-1.61733 0.26165,-2.02402 2.26327,-2.02402 0.90943,0 1.33649,0.19567 1.76056,0.80664 0.48884,0.70428 0.78134,0.7998 2.30505,0.7528 2.06299,-0.0636 3.15023,0.4775 3.43716,1.71074 0.1664,0.71515 0.39334,0.88902 1.16042,0.88902 0.53496,0 1.0392,0.21067 1.14865,0.4799 0.10729,0.26395 0.41412,0.47991 0.68184,0.47991 0.37034,0 0.44428,0.29904 0.30914,1.25017 -0.15833,1.11432 -0.054,1.35447 0.96038,2.21004 1.09202,0.92107 1.1142,0.98471 0.5488,1.57448 -0.72392,0.75512 -0.76187,1.64155 -0.0808,1.88825 1.43482,0.51976 -0.63999,1.85691 -2.39977,1.54658 -0.83755,-0.14769 -1.23651,0.0525 -2.59928,1.30463 -1.71617,1.57677 -1.90962,1.97505 -1.10148,2.2678 0.75153,0.27223 0.6304,0.65523 -0.59311,1.87526 -2.81228,2.804311 -3.2321,3.929998 -1.79677,4.817808 0.6461,0.39963 0.85248,0.83809 0.93203,1.9801 0.0947,1.3593 0.1889,1.49426 1.28543,1.84125 0.88718,0.28073 1.3003,0.66471 1.65101,1.53457 0.5929,1.47055 0.3648,2.01109 -1.13325,2.68543 -0.79546,0.35809 -1.39291,0.95181 -1.77026,1.75921 -0.4226,0.90419 -0.7714,1.21867 -1.35166,1.21867 -0.43013,0 -0.78207,-0.13182 -0.78207,-0.29296 z"
       style="fill:#94add6;fill-opacity:1;stroke-width:0.264583"
       id="path1338" />
    <path
       d="m 45.504984,99.764833 c -0.4053,-0.407261 -0.73691,-0.906101 -0.73691,-1.108521 0,-0.20243 -0.30503,-0.52215 -0.67784,-0.7105 -0.37281,-0.18835 -0.67783,-0.49483 -0.67783,-0.68108 0,-0.18625 0.30502,-0.41394 0.67783,-0.50597 0.50354,-0.1243 0.67784,-0.4364 0.67784,-1.2137 v -1.04636 l -2.33663,-0.12464 c -2.199942,-0.11734 -2.415836,-0.19941 -3.690676,-1.40285 -1.378386,-1.3012 -2.174891,-1.78363 -3.949723,-2.3923 l -0.995688,-0.34147 1.080418,-0.62025 c 0.619122,-0.35543 1.080413,-0.88595 1.080413,-1.24257 0,-0.38378 0.269679,-0.66151 0.703548,-0.72456 0.654097,-0.0951 1.592529,-1.89914 2.225474,-4.27836 0.0961,-0.36124 0.849005,-1.35006 1.673114,-2.19736 0.82413,-0.84731 1.4984,-1.80644 1.4984,-2.1314 0,-0.32496 0.30503,-0.74494 0.67784,-0.93329 0.72173,-0.36463 0.9344,-1.27975 0.29742,-1.27975 -0.26283,0 -0.25001,-0.14834 0.0415,-0.47991 0.23205,-0.26395 0.86078,-0.4799 1.39717,-0.4799 0.74931,0 0.97525,0.14824 0.97525,0.63987 0,0.55242 0.22595,0.63988 1.6531,0.63988 1.05595,0 1.8055,-0.17336 2.07501,-0.47991 0.47311,-0.53814 2.55745,-0.65388 2.88081,-0.15997 0.1152,0.17597 0.71062,0.31994 1.32315,0.31994 1.25389,0 2.2355,0.81055 2.2355,1.84595 0,0.37169 0.15251,0.76477 0.33891,0.87352 0.52796,0.30803 0.40045,1.03894 -0.29085,1.66721 -0.34637,0.3148 -0.72114,1.13011 -0.8328,1.81181 -0.11168,0.6817 -0.43834,1.48488 -0.72591,1.78484 -0.54199,0.56536 -0.72391,1.93474 -0.25702,1.93474 0.14622,0 0.5229,0.41079 0.83707,0.91286 0.55883,0.89305 0.55307,0.92068 -0.26584,1.2729 -0.46039,0.19802 -0.83708,0.56145 -0.83708,0.80763 0,0.24617 -0.24798,0.64187 -0.55108,0.87933 -0.44843,0.35132 -0.51524,0.83537 -0.35864,2.59868 0.14772,1.66329 0.0895,2.16693 -0.2505,2.16693 -0.24363,0 -0.83073,0.28795 -1.30469,0.63988 -0.47395,0.35194 -1.32306,0.63988 -1.88692,0.63988 -1.09195,0 -1.62034,0.76086 -1.27755,1.83964 0.1795,0.56491 -0.82386,1.999608 -1.39843,1.999608 -0.17063,0 -0.64185,-0.33321 -1.04716,-0.740477 z"
       style="fill:#94add6;fill-opacity:1;stroke-width:0.264583"
       id="path1336" />
    <path
       d="m 29.189868,96.838142 c -0.379441,-0.38128 -0.68989,-1.02644 -0.68989,-1.43367 0,-0.66435 -1.114825,-2.14745 -3.045124,-4.05106 -0.955972,-0.94276 -0.85162,-1.58242 0.333774,-2.04593 0.880073,-0.34412 1.016755,-0.56271 1.016755,-1.62604 0,-0.85175 -0.227457,-1.42852 -0.741747,-1.88081 -0.794202,-0.69848 -1.797337,-0.85436 -2.139061,-0.3324 -0.610381,0.9323 -4.236481,-0.31864 -4.236481,-1.46151 0,-0.30466 -0.373323,-0.45812 -1.114401,-0.45812 -2.498505,0 -5.663974,-2.45312 -5.663974,-4.38938 0,-0.61314 -0.159602,-0.75968 -0.762567,-0.70022 -0.419412,0.0414 -1.193824,-0.12052 -1.720915,-0.35972 -1.2960718,-0.58819 -2.0617778,-0.0994 -2.1971098,1.40251 -0.08984,0.99705 -0.225814,1.16736 -0.932027,1.16736 -1.001008,0 -1.036807,-0.3016 -0.160605,-1.35312 0.366428,-0.43975 0.917259,-1.50297 1.224064,-2.3627 0.306807,-0.85973 0.845825,-2.13009 1.1978221,-2.82301 0.7389967,-1.45477 0.8012347,-2.13924 0.242478,-2.66671 -0.301433,-0.28454 -0.303187,-0.57066 -0.0073,-1.18377 0.3962247,-0.82092 1.2098277,-1.07077 1.5909897,-0.48858 0.639975,0.97752 3.219727,-0.117 3.219727,-1.36605 0,-0.8887 0.663877,-0.94984 1.009003,-0.0929 0.181443,0.4505 0.524308,0.81713 0.761933,0.81473 1.247546,-0.0126 1.954808,-0.45918 2.302536,-1.45381 0.205895,-0.58892 0.669789,-1.15927 1.030873,-1.26746 0.446948,-0.13391 0.725515,-0.60396 0.872634,-1.47247 0.151688,-0.89548 0.353856,-1.22587 0.678212,-1.10839 0.254152,0.0921 0.462101,0.0279 0.462101,-0.14249 0,-0.17045 0.0205,-0.41788 0.04556,-0.54986 0.08355,-0.44004 1.180786,-0.99694 2.165209,-1.09895 0.900398,-0.0933 0.995071,0.002 1.269103,1.27803 0.381212,1.77499 1.169252,1.70201 2.135606,-0.19776 l 0.701156,-1.37842 1.417087,1.45126 c 0.779397,0.79819 1.417087,1.74094 1.417087,2.09501 0,0.42361 0.623131,1.03432 1.822151,1.78584 2.442149,1.53069 5.012428,1.8334 6.854722,0.80729 l 1.260885,-0.70228 0.70801,0.69692 c 0.49924,0.49144 0.58309,0.74092 0.28436,0.84611 -0.233,0.0821 -0.42365,0.48002 -0.42365,0.88438 0,0.60195 0.27046,0.79949 1.4922,1.0899 1.47113,0.34969 1.49416,0.37619 1.63202,1.87763 0.0769,0.83761 0.20612,1.73888 0.28713,2.00283 0.10861,0.35385 -0.11977,0.47408 -0.86946,0.45773 -1.12899,-0.0246 -1.8369,0.61822 -1.85327,1.68297 -0.006,0.38554 -0.16329,0.78996 -0.3497,0.89871 -0.1864,0.10875 -0.33892,0.46018 -0.33892,0.78095 0,0.32076 -0.67427,1.27647 -1.498394,2.12377 -0.824114,0.84731 -1.577023,1.83612 -1.673122,2.19736 -0.632944,2.37923 -1.571376,4.18331 -2.225474,4.27836 -0.438346,0.0637 -0.703546,0.34066 -0.703546,0.73474 0,0.36783 -0.424576,0.86058 -1.014616,1.17752 -0.558035,0.29976 -1.015574,0.73527 -1.016754,0.96779 -0.0011,0.23252 -0.230915,0.63873 -0.510521,0.90268 -0.785784,0.74178 -0.613045,1.37718 0.677838,2.49336 1.485493,1.28446 1.492137,1.69693 0.0315,1.9556 -0.635088,0.11247 -1.69726,0.67362 -2.36038,1.24699 l -1.205666,1.0425 z"
       style="fill:#94add6;fill-opacity:1;stroke-width:0.264583"
       id="path1334" />
    <path
       d="m 80.177244,95.461392 c -0.93125,-0.63128 -1.5173,-2.0727 -1.5173,-3.73186 0,-2.19864 -0.4082,-2.45198 -3.59226,-2.22946 -2.51832,0.17598 -3.68001,-0.17427 -2.92909,-0.88313 0.77261,-0.72935 0.48926,-2.07765 -0.62217,-2.96048 -0.9858,-0.78304 -1.02152,-0.88983 -0.65155,-1.94807 0.21529,-0.61579 0.50763,-1.11961 0.64966,-1.11961 0.33834,0 1.04487,-1.47617 1.04487,-2.18309 0,-0.45255 0.24682,-0.53107 1.35568,-0.43124 l 1.35567,0.12204 v -1.27913 c 0,-0.8354 -0.17437,-1.34229 -0.50266,-1.46122 -0.28603,-0.1036 -0.41647,-0.39413 -0.30266,-0.6741 0.14226,-0.34997 0.67877,-0.49202 1.85834,-0.49202 1.41311,0 1.65833,-0.0914 1.65833,-0.61832 0,-0.34007 0.30502,-0.7097 0.67784,-0.8214 0.37281,-0.1117 0.67783,-0.4637 0.67783,-0.78223 0,-1.42896 1.80488,-1.561 2.17755,-0.1593 0.12098,0.45504 0.53553,0.85008 1.01003,0.9625 0.44265,0.10487 1.14273,0.55756 1.55574,1.00596 0.68353,0.74211 0.91837,0.79897 2.61634,0.63354 1.60811,-0.15668 1.88748,-0.10209 2.0254,0.39581 0.0916,0.33062 0.71061,0.73329 1.4478,0.94179 0.70829,0.20032 1.47708,0.57952 1.70843,0.84266 0.54294,0.61758 2.16658,0.61669 2.71005,-0.002 0.23206,-0.26394 0.90331,-0.4799 1.49167,-0.4799 1.05371,0 1.08197,0.0411 1.88353,2.7388 0.80122,2.69652 0.80409,2.75456 0.1862,3.75927 -0.34517,0.56126 -0.83122,1.13617 -1.08012,1.27758 -0.24889,0.14141 -0.74904,0.80576 -1.11143,1.47633 -0.39509,0.73106 -1.32107,1.62032 -2.31274,2.22104 -1.70251,1.03132 -3.46305,2.67605 -3.46305,3.23526 0,0.17414 -0.41941,0.40451 -0.93203,0.51192 -2.11066,0.4423 -5.73579,1.5035 -6.57647,1.92517 -0.98297,0.49304 -1.95594,0.57344 -2.49743,0.20637 z"
       style="fill:#94add6;fill-opacity:1;stroke-width:0.264583"
       id="path1332" />
    <path
       d="m 110.51829,92.666832 c -0.65242,-0.23717 -1.8039,-0.44217 -2.55884,-0.45556 -2.44423,-0.0434 -2.95586,-1.39399 -0.91816,-2.42388 0.69631,-0.35193 1.31976,-0.90467 1.38543,-1.22831 0.18097,-0.89183 -1.23971,-2.12932 -2.45818,-2.14121 -1.63604,-0.016 -2.22863,-0.6394 -2.22863,-2.34465 v -1.48444 h -1.33567 c -0.73462,0 -1.42993,0.14398 -1.54513,0.31994 -0.11521,0.17597 -0.48357,0.31994 -0.8186,0.31994 -0.937116,0 -1.874136,-3.66109 -1.759756,-6.87568 0.05,-1.40609 0.2521,-2.65053 0.44904,-2.76543 0.21038,-0.12274 0.26195,-0.58584 0.12503,-1.12277 -0.12816,-0.50262 -0.3812,-1.7057 -0.5623,-2.67352 -0.23198,-1.23973 -0.5774,-1.95228 -1.16904,-2.41155 -1.06875,-0.82965 -1.07365,-1.42771 -0.0117,-1.42771 1.19596,0 1.88327,-1.12835 1.88327,-3.09171 0,-0.91828 0.15252,-1.75857 0.33892,-1.86733 0.485619,-0.28331 0.419119,-1.9966 -0.0847,-2.18299 -0.233,-0.0862 0.0752,-0.26076 0.684889,-0.38792 0.609697,-0.12717 1.190627,-0.35658 1.290947,-0.50982 0.10033,-0.15324 1.08849,-0.27862 2.19592,-0.27862 1.11639,0 2.01351,-0.14254 2.01351,-0.31994 0,-0.17596 0.62033,-0.31993 1.37852,-0.31993 1.22427,0 1.35443,-0.0716 1.16337,-0.63988 -0.15023,-0.44682 -0.0609,-0.63988 0.29608,-0.63988 0.28117,0 0.60547,0.14398 0.72067,0.31994 0.29568,0.45162 1.58349,0.37918 2.29283,-0.12896 0.32902,-0.23571 0.95029,-1.05896 1.38059,-1.82947 0.88202,-1.57938 2.04448,-1.96221 3.34569,-1.10186 0.41656,0.27544 1.00476,0.50079 1.3071,0.50079 0.30234,0 0.99284,0.35975 1.53445,0.79946 0.54161,0.43969 1.12092,0.79962 1.28736,0.79984 0.16749,2.1e-4 0.22065,1.12922 0.11907,2.52832 -0.11652,1.60483 -0.0505,2.65354 0.18081,2.87189 0.25985,0.2453 0.2014,0.51391 -0.2038,0.93659 -0.40254,0.41988 -0.56816,1.16881 -0.56816,2.56918 0,1.70956 0.11445,2.07048 0.8473,2.67199 0.73384,0.60233 0.8473,0.96167 0.8473,2.68352 0,1.761 0.11448,2.10376 1.00237,3.00103 1.07407,1.08539 3.06465,4.34245 3.06465,5.01448 0,0.22396 0.20811,0.52234 0.46246,0.66304 0.25436,0.14073 0.71819,0.72811 1.03074,1.3053 0.51191,0.94534 0.51647,1.09838 0.0459,1.54256 -0.72227,0.68182 -0.65762,1.19066 0.32493,2.55745 0.96375,1.34063 1.02957,2.00707 0.37382,3.7855 -0.49512,1.3428 -1.32068,2.10291 -2.28399,2.10291 -0.52759,0 -2.66579,1.88278 -3.79764,3.344 -0.37799,0.48798 -0.53149,0.44837 -1.7214,-0.44431 -1.01147,-0.75879 -1.64379,-0.98006 -2.80071,-0.98006 -1.30511,0 -1.56739,0.12126 -2.07164,0.95779 -0.49521,0.82153 -0.77021,0.95462 -1.93302,0.93548 -0.74562,-0.0123 -1.88948,-0.21637 -2.54189,-0.45355 z"
       style="fill:#94add6;fill-opacity:1;stroke-width:0.264583"
       id="path1330" />
    <path
       d="m 69.787024,81.975552 c -0.27255,-0.41199 -0.79562,-0.66652 -1.36971,-0.66652 -0.70053,0 -0.9795,-0.19077 -1.13517,-0.7763 -0.36013,-1.35448 -1.38837,-1.94318 -3.39408,-1.94318 -1.50471,0 -1.91448,-0.1252 -2.35593,-0.71986 -0.45122,-0.6078 -0.84482,-0.71985 -2.52869,-0.71985 -1.09686,0 -2.09321,0.15108 -2.2141,0.33574 -0.13313,0.20333 -0.53561,0.0141 -1.02058,-0.47991 -0.51413,-0.52368 -1.16335,-0.81565 -1.8137,-0.81565 -0.55712,0 -1.1072,-0.14397 -1.2224,-0.31993 -0.11521,-0.17598 -0.58175,-0.31995 -1.03676,-0.31995 -0.45502,0 -0.82729,-0.12194 -0.82729,-0.27098 0,-0.14904 -0.30503,-0.60299 -0.67784,-1.00877 -0.81703,-0.88929 -0.88179,-2.32137 -0.13155,-2.90914 0.30047,-0.2354 1.04264,-0.38762 1.6493,-0.33828 1.3486,0.10968 1.50674,-0.2904 1.56167,-3.95118 0.0577,-3.84573 0.20029,-4.1403 2.05943,-4.25504 2.15716,-0.13314 3.30932,-1.24987 2.74517,-2.66077 -0.54344,-1.35911 -0.052,-2.44776 1.16446,-2.5795 0.78621,-0.0851 0.9673,-0.27427 1.05237,-1.09903 0.0714,-0.69169 0.35625,-1.10523 0.93203,-1.35288 0.52215,-0.22458 0.83119,-0.62582 0.83446,-1.0834 0.007,-1.00714 0.44785,-1.56773 1.5741,-2.00249 0.85603,-0.33046 1.11269,-0.26895 2.31828,0.5556 1.23484,0.84455 1.53691,0.91203 3.38918,0.75708 1.11843,-0.0936 2.54844,-0.21212 3.17779,-0.26347 1.22144,-0.0997 1.54802,0.20096 1.89072,1.74044 0.11961,0.53735 0.58432,1.06429 1.2064,1.36796 0.90882,0.44365 1.01184,0.64946 1.01184,2.02143 0,0.84012 0.18302,1.70025 0.4067,1.91142 0.23636,0.22311 1.36931,0.38391 2.7049,0.38391 2.23213,0 2.304,0.0253 2.50047,0.87984 0.11125,0.4839 0.36791,1.20236 0.57035,1.59658 0.54819,1.06754 -0.52244,2.10276 -1.88296,1.82067 -1.60625,-0.33303 -2.23492,1.44993 -0.91027,2.58159 0.37281,0.31849 0.67784,0.8879 0.67784,1.26535 0,0.37744 0.16786,0.84473 0.37303,1.03841 0.27144,0.25623 0.17913,0.41024 -0.33892,0.56545 -0.39157,0.11733 -0.71534,0.38358 -0.71949,0.59168 -0.004,0.2081 -0.30577,0.73829 -0.6703,1.17821 -0.36452,0.43991 -0.66615,1.04209 -0.6703,1.33817 -0.004,0.29608 -0.31256,0.62972 -0.68537,0.74142 -0.37281,0.1117 -0.67784,0.48133 -0.67784,0.82141 0,0.52689 -0.24522,0.61831 -1.65833,0.61831 -1.19954,0 -1.71525,0.14002 -1.86405,0.50608 -0.35846,0.88179 -0.22328,1.74721 0.30266,1.93773 0.65009,0.2355 0.66671,1.39545 0.02,1.39545 -0.26861,0 -0.58264,-0.14397 -0.69784,-0.31994 -0.45548,-0.69569 -1.17676,-0.2615 -1.51077,0.90945 -0.19287,0.67615 -0.64706,1.55197 -1.00932,1.94626 l -0.65864,0.7169 z"
       style="fill:#94add6;fill-opacity:1;stroke-width:0.264583"
       id="path1328" />
    <path
       d="m 92.556894,77.951152 c -0.23134,-0.26313 -1.00013,-0.64233 -1.70842,-0.84266 -0.75734,-0.21419 -1.35575,-0.60951 -1.45275,-0.95967 -0.2189,-0.7902 -1.18395,-1.10915 -1.9642,-0.64916 -0.97744,0.57623 -1.95658,0.44026 -2.77196,-0.38496 -0.41052,-0.41546 -1.08918,-0.85696 -1.50817,-0.98113 -0.41897,-0.12417 -0.85525,-0.57735 -0.9695,-1.00707 -0.12167,-0.4576 -0.5339,-0.85858 -0.99499,-0.96782 -0.90735,-0.21498 -0.77972,-0.95878 0.2157,-1.25701 0.68939,-0.20656 0.90739,-1.56033 0.3076,-1.91026 -0.1864,-0.10875 -0.33891,-0.52685 -0.33891,-0.9291 0,-0.40226 -0.30144,-0.9889 -0.66985,-1.30364 -0.86519,-0.73913 -0.58771,-1.1266 0.80678,-1.1266 0.64849,0 1.34798,-0.2444 1.67459,-0.58509 0.59371,-0.6193 0.76752,-2.45599 0.26041,-2.75185 -0.16528,-0.0964 -0.40096,-0.68081 -0.52374,-1.29863 l -0.22324,-1.12332 h -2.28928 c -1.32867,0 -2.45995,-0.1611 -2.696,-0.38392 -0.22368,-0.21116 -0.4067,-1.06714 -0.4067,-1.90217 0,-1.33761 -0.10995,-1.568 -0.92414,-1.93638 -0.53604,-0.24252 -1.05085,-0.82089 -1.22584,-1.37719 -0.57324,-1.82231 -0.70638,-1.92268 -2.46517,-1.8584 -0.91016,0.0333 -2.30286,0.15634 -3.09489,0.27352 -1.25271,0.18534 -1.66052,0.0795 -3.13499,-0.81369 -1.82173,-1.10353 -2.09128,-1.69711 -1.01712,-2.23979 0.71831,-0.3629 0.90958,-1.57288 0.33446,-2.11579 -0.45947,-0.43375 0.25717,-2.38682 1.07929,-2.94137 0.66282,-0.44712 0.85447,-2.12672 0.28084,-2.46138 -0.18641,-0.10876 -0.33892,-0.54917 -0.33892,-0.9787 0,-0.55829 0.18655,-0.78096 0.65427,-0.78096 0.41627,0 0.69366,-0.25709 0.76256,-0.70675 0.0683,-0.44539 0.42164,-0.77718 0.95561,-0.89723 0.76213,-0.17134 0.84729,-0.34926 0.84729,-1.77019 0,-1.56952 0.009,-1.58273 1.43163,-2.04948 1.1636,-0.38182 1.644,-0.39728 2.56595,-0.0826 0.62388,0.21297 1.80981,0.38349 2.6354,0.37895 1.41646,-0.008 1.53607,-0.0799 2.12209,-1.27975 0.59461,-1.21743 0.68847,-1.2715 2.20733,-1.2715 1.31999,0 1.64248,-0.12085 1.92087,-0.71986 0.22591,-0.48609 0.68073,-0.75161 1.40055,-0.81761 0.5863,-0.0538 1.33437,-0.37771 1.66239,-0.71987 0.41135,-0.42907 1.04045,-0.6221 2.02751,-0.6221 0.81635,0 1.60105,-0.1933 1.82672,-0.45 0.2176,-0.2475 1.13255,-0.49945 2.03324,-0.55989 l 1.63761,-0.10989 0.17309,2.87231 c 0.13789,2.28825 0.29406,2.93881 0.76801,3.19938 1.19731,0.65824 2.53164,2.08171 2.53164,2.70076 0,1.61763 2.04014,3.54516 3.752276,3.54516 0.46248,0 1.01685,0.28314 1.25285,0.63988 0.29201,0.4414 0.79036,0.63987 1.60666,0.63987 1.00885,0 1.18334,0.10851 1.18334,0.73586 0,0.40472 0.17844,0.9043 0.39652,1.11018 0.30276,0.2858 0.29372,0.6684 -0.0382,1.61788 -0.60226,1.72267 -0.2842,2.35833 1.84911,3.69544 1.55241,0.97302 2.14254,1.15903 3.67697,1.15903 1.21121,0 1.97008,0.16189 2.24968,0.47991 0.23205,0.26395 0.74639,0.49695 1.14298,0.51776 0.53919,0.0283 0.47703,0.0888 -0.24643,0.23995 -0.69198,0.14455 -1.1922,0.59924 -1.75652,1.59663 -0.86829,1.53464 -2.01475,2.4918 -2.35751,1.96825 -0.11644,-0.17784 -0.75078,-0.32336 -1.40966,-0.32336 -0.91291,0 -1.24011,0.15225 -1.3752,0.63987 -0.12555,0.45324 -0.46229,0.63988 -1.15448,0.63988 -0.53748,0 -0.97723,0.14397 -0.97723,0.31994 0,0.17739 -0.89711,0.31994 -2.01351,0.31994 -1.10743,0 -2.09559,0.12537 -2.19592,0.27861 -0.10032,0.15324 -0.643117,0.3656 -1.206206,0.47191 -1.08771,0.20536 -1.37814,1.02659 -0.61711,1.745 0.31632,0.2986 0.31632,0.46924 0,0.76785 -0.22369,0.21116 -0.4067,1.11494 -0.4067,2.0084 0,1.917 -0.69828,3.04662 -1.88327,3.04662 -1.23362,0 -1.17608,1.79361 0.0881,2.74515 0.72537,0.54601 0.92594,0.98154 0.9632,2.09162 0.0259,0.77111 0.0887,1.54599 0.1396,1.72196 0.14611,0.50516 -0.008,4.41923 -0.19809,5.03902 -0.12945,0.42153 -0.53294,0.55989 -1.63273,0.55989 -0.88502,0 -1.6271,0.18916 -1.88272,0.47991 -0.53096,0.60395 -0.82442,0.60427 -1.35438,0.002 z"
       style="fill:#94add6;fill-opacity:1;stroke-width:0.264583"
       id="path1326" />
    <path
       d="m 45.834694,74.990252 c -0.24374,-0.83584 -0.52201,-2.20502 -0.61838,-3.04263 -0.17325,-1.50598 -0.19266,-1.52708 -1.74344,-1.89571 -0.86253,-0.20501 -1.3815,-0.43152 -1.15327,-0.50333 0.70087,-0.22055 0.46949,-1.83699 -0.36945,-2.581 -0.993,-0.88062 -1.51081,-0.87565 -2.525509,0.0242 -1.335326,1.18422 -3.586115,1.0016 -5.955004,-0.48317 -1.294431,-0.81132 -1.919396,-1.41655 -1.919396,-1.8588 0,-0.36067 -0.75062,-1.40498 -1.668044,-2.32069 -0.917424,-0.91571 -1.77637,-2.07237 -1.908768,-2.57035 -0.228973,-0.86121 -0.311031,-0.89547 -1.680715,-0.70157 -1.319967,0.18686 -1.457,0.13984 -1.644181,-0.56418 -0.112306,-0.42241 -0.89307,-1.36744 -1.735023,-2.10007 -1.675317,-1.45776 -1.752471,-1.76999 -1.144079,-4.62975 0.342712,-1.61093 0.318092,-1.88953 -0.216235,-2.44689 -0.499377,-0.5209 -0.528015,-0.71425 -0.16667,-1.12526 0.352274,-0.40069 0.35492,-0.75619 0.01374,-1.84565 -0.23241,-0.74214 -0.553388,-1.58903 -0.713276,-1.88197 -0.189662,-0.34748 -0.131603,-0.65726 0.167035,-0.89122 0.251764,-0.19725 0.558376,-0.86496 0.68136,-1.48383 0.122986,-0.61886 0.44961,-1.20706 0.725827,-1.30712 0.709574,-0.25704 1.4939,-1.81526 1.4939,-2.96794 0,-0.87224 0.108521,-0.9757 1.02349,-0.9757 1.310344,0 3.653729,-1.39009 4.065064,-2.41139 0.174548,-0.4334 0.511781,-0.78812 0.749405,-0.78827 0.689476,-5.3e-4 2.973922,-2.40853 2.973922,-3.13486 0,-0.36445 -0.28404,-0.7461 -0.633137,-0.85069 -0.348226,-0.10434 -0.905663,-0.47397 -1.238747,-0.82141 -0.587031,-0.61234 -0.58061,-0.63174 0.209494,-0.6329 1.419529,-0.002 2.959436,-1.12334 3.079914,-2.24259 0.105743,-0.98233 0.119399,-0.98944 0.78545,-0.40907 1.870538,1.62992 2.905096,2.09109 4.239239,1.8897 1.467034,-0.22145 2.153094,0.29338 1.235239,0.92694 -0.883399,0.60978 -0.717976,2.28335 0.287145,2.90504 1.06436,0.65834 1.0818,1.32316 0.0464,1.76851 -0.699466,0.30085 -0.826485,0.63224 -1.00265,2.61589 -0.217945,2.454 -0.05827,2.8412 1.48163,3.59292 1.27506,0.62243 1.4741,1.59403 0.45562,2.224 -1.18633,0.73379 -1.159496,2.63211 0.0412,2.9166 0.46901,0.11112 1.15532,0.12734 1.52514,0.036 0.53478,-0.13201 0.67239,-0.006 0.67239,0.61394 0,0.98975 0.85689,1.31555 1.65862,0.63062 0.68766,-0.58747 1.11417,-0.30999 1.54007,1.00193 0.15526,0.47825 0.65766,0.82108 1.52713,1.0421 0.71267,0.18115 1.48471,0.54429 1.71566,0.80697 0.56618,0.64401 2.70933,0.6422 2.70933,-0.002 0,-0.68137 0.59643,-0.59426 1.09541,0.15997 0.25865,0.39098 0.79036,0.63988 1.36693,0.63988 0.66621,0 1.02936,0.21163 1.23526,0.71986 0.56542,1.39568 1.57037,1.94478 3.12878,1.70954 0.92836,-0.14014 1.50398,-0.0877 1.66042,0.15123 0.32121,0.49063 -0.38158,2.27905 -1.09317,2.78183 -0.31402,0.22188 -0.61905,0.79708 -0.67783,1.27823 -0.084,0.68759 -0.32185,0.90962 -1.1113,1.03742 -1.24527,0.20162 -1.87467,1.76833 -1.2939,3.22081 0.32151,0.80406 0.26871,0.9676 -0.45739,1.41671 -0.54979,0.34006 -1.1888,0.44256 -1.93511,0.31039 -1.71852,-0.30434 -2.02099,0.30275 -2.23838,4.49273 -0.10345,1.99398 -0.28763,3.71903 -0.40929,3.83345 -0.12165,0.11443 -0.54633,0.0181 -0.94373,-0.21404 -0.65189,-0.38082 -0.8169,-0.32041 -1.68749,0.61771 -0.53073,0.57189 -1.13552,1.0398 -1.34398,1.0398 -0.51341,0 -0.47797,0.50075 0.0722,1.02011 0.24817,0.23427 0.5561,0.82044 0.68429,1.3026 0.1282,0.48217 0.38269,0.87666 0.56555,0.87666 0.18285,0 0.33246,0.14398 0.33246,0.31994 0,0.17598 -0.16341,0.31994 -0.36313,0.31994 -0.19972,0 -0.5919,0.21596 -0.8715,0.47991 -0.27961,0.26395 -0.92035,0.47991 -1.42387,0.47991 -0.80402,0 -0.96945,-0.18504 -1.35866,-1.51971 z"
       style="fill:#94add6;fill-opacity:1;stroke-width:0.264583"
       id="path1324" />
    <path
       d="m 12.042758,69.121352 c -0.126099,-0.19261 -0.820871,-0.2967 -1.545137,-0.2315 -0.8189157,0.0737 -1.3160068,-0.0166 -1.3160068,-0.23926 0,-0.19675 -0.591963,-0.52516 -1.315471,-0.72978 -1.754841,-0.49633 -2.183231,-1.01536 -1.742085,-2.11069 0.61016,-1.51496 0.412453,-2.55792 -0.670549,-3.53741 -0.559216,-0.50575 -1.012516,-1.07258 -1.007331,-1.25962 0.0052,-0.18703 0.473272,-0.91595 1.040193,-1.61982 l 1.030758,-1.27975 -0.233209,-3.35935 c -0.154318,-2.22288 -0.445844,-3.77962 -0.861738,-4.60164 -0.616343,-1.21821 -0.615558,-1.25947 0.04032,-2.12898 0.752072,-0.99704 0.88539,-2.85507 0.248029,-3.45673 -0.335145,-0.31637 -0.317891,-0.45868 0.08473,-0.69897 0.278048,-0.16594 0.761373,-0.30392 1.074053,-0.30661 0.742871,-0.006 1.973379,-1.49783 1.973379,-2.39181 0,-0.38552 0.380733,-1.03858 0.8460701,-1.45126 0.7670067,-0.68021 0.9271237,-0.70938 1.7134387,-0.31213 0.77788,0.393 1.024935,0.35738 2.394512,-0.34523 0.839923,-0.4309 1.77016,-1.0354 2.06719,-1.34334 0.29703,-0.30794 0.802772,-0.55989 1.123868,-0.55989 0.321094,0 0.773674,-0.21596 1.005727,-0.47991 0.232054,-0.26395 0.841719,-0.47991 1.354805,-0.47991 0.513095,0 1.4095,-0.09 1.992016,-0.19996 0.891502,-0.16831 1.059122,-0.34553 1.059122,-1.11978 0,-0.59107 0.175989,-0.91983 0.492406,-0.91983 0.389865,0 0.456672,0.3498 0.3208,1.67968 -0.323115,3.16257 -0.4972,3.72984 -1.335709,4.35248 -0.459923,0.34151 -0.930168,1.06438 -1.044999,1.60638 -0.114828,0.54199 -0.419173,1.15027 -0.676317,1.35173 -0.571748,0.44793 -0.610191,1.62498 -0.06973,2.13517 0.230412,0.21751 0.383814,1.24611 0.364567,2.44445 -0.02139,1.33183 0.122325,2.19079 0.403396,2.41099 0.316919,0.2483 0.360397,0.71404 0.158574,1.69876 -0.152934,0.74618 -0.284702,1.96559 -0.292818,2.70982 -0.01312,1.20236 0.15584,1.50161 1.516066,2.6852 0.841955,0.73263 1.624509,1.6844 1.73901,2.11507 0.186974,0.70323 0.35728,0.77183 1.671261,0.67317 1.767292,-0.13268 2.04648,0.37809 1.251262,2.28916 -0.559348,1.34421 -1.108581,1.4247 -1.108581,0.16246 0,-0.41913 -0.158112,-0.85432 -0.351356,-0.96706 -0.665422,-0.38823 -3.147687,0.24184 -3.954917,1.00386 -0.444572,0.41968 -0.934405,0.76305 -1.088513,0.76305 -0.154109,0 -0.380212,0.59042 -0.502448,1.31204 -0.155801,0.91976 -0.417753,1.36031 -0.876125,1.47346 -0.365633,0.0903 -0.82125,0.64018 -1.033562,1.24746 -0.456294,1.30515 -1.40162,1.44319 -1.960054,0.28621 -0.212329,-0.43992 -0.587589,-0.79985 -0.833912,-0.79985 -0.61736,0 -1.261267,0.66069 -1.261267,1.29415 0,0.49571 -0.994592,1.58529 -1.447091,1.58529 -0.114125,0 -0.310605,-0.15748 -0.436625,-0.34997 z"
       style="fill:#94add6;fill-opacity:1;stroke-width:0.264583"
       id="path1322" />
    <path
       d="m 62.052924,51.194152 c 0,-0.2421 -0.58274,-0.30778 -1.77284,-0.19984 -1.8779,0.17034 -2.28919,-0.0507 -2.97522,-1.5991 -0.22988,-0.51886 -0.60186,-0.71986 -1.33216,-0.71986 -0.66635,0 -1.13741,-0.21906 -1.37599,-0.63988 -0.45175,-0.79682 -2.71135,-0.93014 -2.71135,-0.15997 0,0.66605 -0.79641,0.60016 -1.48993,-0.12325 -0.31803,-0.33173 -0.99474,-0.68179 -1.5038,-0.7779 -0.63586,-0.12005 -1.10611,-0.53212 -1.50233,-1.31648 -0.60681,-1.20122 -1.73045,-1.53469 -2.55345,-0.75779 -0.31632,0.2986 -0.4067,0.18265 -0.4067,-0.52177 0,-0.84114 -0.0785,-0.89436 -1.10148,-0.74667 -2.09116,0.3019 -2.62924,-0.51383 -1.05364,-1.5973 1.30114,-0.89473 0.93261,-2.55961 -0.80278,-3.62666 -1.218138,-0.74901 -1.249848,-0.81792 -1.152648,-2.50476 0.07996,-1.38759 0.263798,-1.85623 0.919028,-2.34277 1.11202,-0.82573 1.09846,-2.235 -0.0282,-2.93189 -0.95085,-0.58812 -1.104676,-1.30744 -0.33892,-1.58483 0.27961,-0.10129 0.50838,-0.37759 0.50838,-0.61402 0,-0.54976 1.2547,-3.01287 1.65316,-3.24534 0.16637,-0.0971 0.78451,-0.0179 1.37363,0.17601 0.89498,0.29452 1.18008,0.25943 1.73353,-0.21339 0.36431,-0.31123 0.66238,-0.74411 0.66238,-0.96196 0,-0.44644 0.74677,-0.78449 1.73295,-0.78449 0.36341,0 0.74854,-0.21596 0.85584,-0.47991 0.28578,-0.70304 2.23942,-0.61976 2.7263,0.1162 0.2964,0.44802 0.99076,0.65159 2.79508,0.81942 2.04861,0.19057 2.5371,0.35955 3.33054,1.15218 0.76019,0.7594 1.33172,0.97471 3.13279,1.18019 l 2.20297,0.25133 0.10573,1.20827 c 0.11349,1.297 0.90692,1.94248 4.30127,3.49923 1.33346,0.61156 1.52408,0.82678 1.52408,1.72079 0,0.67366 0.20208,1.09888 0.59311,1.24804 0.5328,0.20324 0.51881,0.25334 -0.13754,0.49268 -0.88676,0.32336 -1.38314,2.03932 -0.7863,2.7182 0.41278,0.46952 0.35951,0.50995 -1.27913,0.97115 -0.23301,0.0656 -0.42365,0.4117 -0.42365,0.76916 0,0.42145 -0.22268,0.64991 -0.63349,0.64991 -0.92478,0 -1.257,2.14481 -0.46086,2.97527 0.55043,0.57415 0.54125,0.63477 -0.17954,1.18575 -0.4178,0.31936 -0.75962,0.73753 -0.75962,0.92929 0,0.19175 -0.15251,0.34864 -0.33892,0.34864 -0.4644,0 -0.43015,2.66534 0.04,3.10912 0.27922,0.26359 0.19008,0.46896 -0.33892,0.78083 -0.39479,0.23274 -0.7178,0.74339 -0.7178,1.13479 0,0.3914 -0.295,0.86067 -0.65556,1.04283 -0.85429,0.43159 -1.37795,0.4204 -1.37795,-0.0294 z"
       style="fill:#94add6;fill-opacity:1;stroke-width:0.264583"
       id="path1320" />
    <path
       d="m 113.56856,50.435002 c -0.2796,-0.31801 -1.03847,-0.4799 -2.24969,-0.4799 -1.5318,0 -2.12489,-0.18623 -3.66265,-1.15007 -1.00919,-0.63254 -1.92138,-1.36283 -2.02709,-1.62287 -0.22079,-0.54316 0.34775,-1.70619 0.83406,-1.70619 0.52581,0 0.36424,-0.73671 -0.35084,-1.5997 -0.36452,-0.43991 -0.66616,-1.12378 -0.6703,-1.5197 -0.008,-0.72735 -0.17003,-0.80889 -1.70214,-0.85457 -0.61149,-0.0182 -0.81958,-0.18107 -0.7477,-0.58515 0.08,-0.45001 -0.14866,-0.55989 -1.16525,-0.55989 -2.126237,0 -4.187576,-1.74511 -4.187576,-3.54516 0,-0.61906 -1.33433,-2.04253 -2.53164,-2.70077 -0.475,-0.26114 -0.63044,-0.91506 -0.77112,-3.24408 l -0.17618,-2.91702 1.39877,-0.22309 c 0.76933,-0.12269 1.47396,-0.33792 1.56585,-0.47826 0.0919,-0.14036 0.8744,-0.35532 1.73892,-0.4777 1.611446,-0.22812 1.977156,-0.48958 4.190436,-2.99588 0.6482,-0.73401 1.34411,-1.33458 1.54645,-1.33458 0.64246,0 2.29092,-1.8662 2.75168,-3.11514 0.6269,-1.69929 0.56613,-2.1811 -0.34627,-2.74544 -0.58852,-0.36402 -0.84717,-0.88484 -0.97623,-1.96571 -0.1196,-1.00166 -0.42799,-1.67713 -0.96731,-2.11869 l -0.79174,-0.64821 1.55847,-1.342121 c 0.85716,-0.7381597 1.64795,-1.5940699 1.75733,-1.9020099 0.28309,-0.797015 1.32535,-0.692422 2.39108,0.23995 0.50284,0.43992 1.06529,0.7998502 1.24988,0.7998502 0.1846,0 0.66303,0.28794 1.0632,0.6398697 0.40017,0.35194 0.98021,0.63988 1.28897,0.63988 1.31206,0 2.758,2.976941 2.46105,5.066871 -0.11838,0.8332 -0.0555,1.33189 0.16802,1.33189 0.59945,0 1.12466,2.06843 0.88478,3.48456 -0.16648,0.98281 -0.0883,1.47513 0.29897,1.88257 0.28841,0.30345 0.63454,1.1118 0.76916,1.79633 0.13462,0.68454 0.60323,1.83631 1.04135,2.55951 0.43812,0.72319 0.79842,1.6084 0.80067,1.96711 0.002,0.35872 0.314,1.22255 0.69278,1.91963 0.81531,1.5004 1.87716,5.31357 2.2104,7.93766 0.30353,2.39023 -0.25288,4.1119 -1.49265,4.61854 -1.72336,0.70427 -3.17862,1.63096 -3.71708,2.36699 -0.29834,0.40779 -0.73932,0.93169 -0.97996,1.16422 -0.24063,0.23252 -0.43751,0.70043 -0.43751,1.03979 0,0.33936 -0.12427,0.61703 -0.27615,0.61703 -0.15188,0 -0.5307,0.5039 -0.84182,1.11978 -0.62118,1.2297 -0.95646,1.36434 -1.59338,0.63987 z"
       style="fill:#94add6;fill-opacity:1;stroke-width:0.264583"
       id="path1318" />
    <path
       d="m 4.7756702,43.366092 c 0,-0.17501 -1.062585,-1.31959 -2.361299,-2.5435 -1.298716,-1.22391 -2.36631,-2.42632 -2.372432,-2.67203 -0.0061,-0.24569 0.67518103,-1.13935 1.514004,-1.98589 0.838825,-0.84655 1.525136,-1.69839 1.525136,-1.89297 0,-0.19458 0.405829,-1.13618 0.901846,-2.09245 0.799742,-1.54182 0.859176,-1.87458 0.524986,-2.93928 -0.207269,-0.66034 -0.473095,-1.84851 -0.59072,-2.64035 -0.117629,-0.79185 -0.323337,-2.15958 -0.457128,-3.03941 -0.133791,-0.87983 -0.425082,-1.912 -0.647309,-2.29371 -0.249978,-0.42936 -0.322906,-1.25287 -0.191256,-2.15958 0.200362,-1.37993 0.274469,-1.46639 1.268211,-1.47961 0.580484,-0.008 1.665474,-0.23403 2.411094,-0.50291 0.745623,-0.26888 2.041988,-0.6966 2.880811,-0.95049 0.8388218,-0.25389 1.9064158,-0.72257 2.3724298,-1.0415 0.95996,-0.65699 2.769859,-1.16898 6.39498,-1.80904 1.551183,-0.27388 2.779365,-0.69099 3.241571,-1.1009 0.527267,-0.4676 1.194933,-0.65994 2.290785,-0.65994 2.789571,0 5.189992,-1.472471 6.67739,-4.0960549 0.411472,-0.72578 2.022409,-1.662834 2.858661,-1.662834 0.65446,0 1.169139,1.381841 1.330934,3.573378 0.121708,1.6485599 0.06212,1.8445909 -0.654272,2.1527209 -0.977943,0.42063 -1.05206,1.7033 -0.147752,2.55697 0.503632,0.47543 0.60361,0.91287 0.468077,2.04798 -0.14755,1.23573 -0.06901,1.49563 0.545796,1.80624 0.807048,0.40773 1.009372,1.93999 0.256162,1.93999 -0.326041,0 -0.515753,0.6324 -0.644726,2.14916 -0.100513,1.18204 -0.350166,2.20185 -0.554779,2.26623 -0.20462,0.0644 -0.372033,0.52653 -0.372033,1.027 0,1.17455 -1.389319,2.23613 -2.926516,2.23613 -1.625966,0 -1.535801,1.00542 0.196387,2.18994 l 1.336891,0.9142 -1.266451,1.1674 c -0.69655,0.64207 -1.454439,1.1674 -1.6842,1.1674 -0.229762,0 -0.560343,0.35405 -0.734627,0.78678 -0.384418,0.95447 -2.773283,2.51083 -3.618124,2.35724 -0.4936,-0.0897 -0.590076,-0.36947 -0.506093,-1.46747 l 0.103762,-1.35661 h -1.212128 c -1.10916,0 -1.212134,0.0781 -1.212134,0.91982 0,0.77425 -0.167618,0.95147 -1.059122,1.11978 -0.582514,0.10998 -1.478922,0.19996 -1.992014,0.19996 -0.513089,0 -1.122751,0.21597 -1.354808,0.47991 -0.232052,0.26396 -0.699617,0.47991 -1.039034,0.47991 -0.339421,0 -0.818989,0.25195 -1.065715,0.55989 -0.833437,1.04022 -2.464942,1.61971 -4.077152,1.44817 -1.3839947,-0.14726 -1.5742177,-0.079 -2.2406488,0.80454 -0.400538,0.53101 -0.728255,1.17578 -0.728255,1.43282 0,0.71365 -1.330697,2.15334 -1.990326,2.15334 -0.321999,0 -0.76847,0.17277 -0.992159,0.38393 -0.223683,0.21116 -0.406701,0.24073 -0.406701,0.0657 z"
       style="fill:#94add6;fill-opacity:1;stroke-width:0.264583"
       id="path1316" />
    <path
       d="m 74.604594,34.242652 c -0.4596,-0.17317 -1.37467,-0.27202 -2.03351,-0.21967 -1.44582,0.11488 -2.38343,-0.6336 -2.38564,-1.90443 -0.001,-0.78139 -0.32368,-1.03515 -2.88082,-2.26804 -2.87751,-1.38736 -2.87927,-1.38898 -2.87927,-2.64953 0,-1.24253 -0.0642,-1.31278 -1.58356,-1.73227 -0.70745,-0.19532 -0.0749,-1.3651 0.9562,-1.76827 0.68045,-0.26607 1.06491,-0.68577 1.19631,-1.30595 0.1237,-0.58386 0.40598,-0.91388 0.78168,-0.91388 0.82981,0 3.05531,-2.068 3.05531,-2.83908 0,-0.74499 -0.39135,-1.02568 -1.8126,-1.30008 -0.75413,-0.1456 -1.09186,-0.43566 -1.27984,-1.09916 -0.14045,-0.49576 -0.49106,-1.06764 -0.77914,-1.27086 -0.54114,-0.38174 -0.39675,-1.80921 0.18301,-1.80921 0.16466,0 0.29939,-0.57589 0.29939,-1.27976 0,-1.146071 0.0871,-1.279751 0.83337,-1.279751 1.26646,0 3.21572,-1.0316297 3.22532,-1.7069699 0.007,-0.52373 0.23727,-0.56967 2.12657,-0.42509 1.16504,0.0892 3.03333,0.30292 4.15176,0.47504 6.6038,1.0162702 8.29368,1.1596599 13.38728,1.1359699 3.07569,-0.0143 7.04104,-0.1915097 8.81189,-0.3937897 1.770849,-0.20229 4.363566,-0.4470802 5.761606,-0.5439902 l 2.5419,-0.17619 -1.27096,1.0574599 c -1.49568,1.244441 -1.61251,2.145661 -0.42364,3.267951 0.62292,0.58804 0.8473,1.14064 0.8473,2.08677 0,1.00108 0.17853,1.39734 0.80376,1.78407 0.74155,0.45867 0.77255,0.58288 0.40046,1.60459 -0.46124,1.26652 -1.57417,2.48026 -3.07961,3.35857 -0.57181,0.3336 -1.53413,1.25654 -2.1385,2.05098 -0.84614,1.11224 -1.426767,1.5248 -2.524766,1.79396 -0.78426,0.19225 -2.49352,0.71745 -3.79836,1.16713 -1.30484,0.44968 -3.09003,0.88563 -3.96709,0.96878 -0.87707,0.0831 -1.77269,0.35368 -1.99028,0.60118 -0.22568,0.25669 -1.01037,0.44999 -1.82673,0.44999 -1.00068,0 -1.61561,0.19246 -2.04454,0.63988 -0.33739,0.35194 -0.90485,0.63988 -1.26103,0.63988 -0.93945,0 -1.9587,0.58855 -1.9587,1.13104 0,0.33967 -0.40529,0.46865 -1.4726,0.46865 -1.55777,0 -2.3169,0.50844 -2.74663,1.83964 -0.17964,0.55647 -0.47721,0.71525 -1.31104,0.69958 -0.59325,-0.0111 -1.45467,-0.16196 -1.91426,-0.33514 z"
       style="fill:#94add6;fill-opacity:1;stroke-width:0.264583"
       id="path1314" />
    <path
       d="m 37.142405,26.196482 c -2.254031,-1.56323 -2.426187,-1.85315 -2.277857,-3.83604 0.09775,-1.30665 0.275821,-1.83965 0.61463,-1.83965 0.338844,0 0.47701,-0.41376 0.47701,-1.42846 0,-1.09565 -0.156168,-1.50736 -0.670269,-1.7671 -0.56618,-0.28603 -0.63867,-0.55633 -0.466747,-1.74039 0.170561,-1.17471 0.08699,-1.49596 -0.515942,-1.9833 -0.930101,-0.75178 -0.90668,-1.0124 0.131095,-1.45876 0.834144,-0.35877 0.846469,-0.41577 0.638268,-2.9525609 -0.116766,-1.422706 -0.416494,-2.895851 -0.666062,-3.273661 -0.419002,-0.634304 -0.370531,-0.717228 0.632677,-1.082412 2.568485,-0.934977 3.611393,-1.453346 3.619587,-1.799085 0.0048,-0.202974 0.733179,-0.447256 1.618607,-0.542845 3.210412,-0.346595 0.857332,-0.431732 2.107102,-1.2124681 1.24508,-0.77781197 6.21243,-1.185093 10.37374,-0.958521 3.96498,0.21588503 7.12216,4.0250891 6.93233,4.5896701 -0.0968,0.287984 0.0168,1.520867 -0.87869,0.98843 -0.89543,-0.532437 -3.88537,-4.1299791 -4.44383,-3.744692 -1.01539,0.70053 1.73821,3.076214 1.73821,3.743281 0,0.961682 0.0971,2.856313 0.9705,3.6037632 1.03964,0.8897397 1.89481,0.27848 4.22099,0.17942 3.40919,-0.14518 4.24665,0.7161597 2.96023,3.0446207 -0.69764,1.26275 -0.63914,2.44628 0.14371,2.9078 0.3598,0.21212 0.70295,0.78099 0.76257,1.26416 0.091,0.73766 0.32249,0.92021 1.44395,1.1387 0.73456,0.1431 1.40614,0.32682 1.4924,0.40825 0.32253,0.30447 -2.17862,2.38942 -2.87033,2.39269 -0.51976,0.002 -0.77409,0.25775 -0.91382,0.91729 -0.13273,0.62648 -0.5165,1.04013 -1.22029,1.31533 -0.76748,0.30009 -1.08093,0.67448 -1.2416,1.48294 -0.19378,0.97509 -0.30297,1.06197 -1.10978,0.88303 -0.49216,-0.10916 -1.29722,-0.55139 -1.78903,-0.98274 -0.92386,-0.81029 -2.73329,-1.35194 -4.56071,-1.36524 -0.61034,-0.004 -1.30546,-0.2752 -1.66239,-0.64751 -0.77203,-0.8053 -3.71027,-0.92222 -4.02013,-0.15997 -0.10729,0.26395 -0.54302,0.48211 -0.96829,0.48481 -0.91552,0.006 -1.31795,0.25084 -1.83094,1.11488 -0.29889,0.50345 -0.73248,0.63988 -2.03351,0.63988 -1.51012,0 -1.69715,0.0851 -2.15536,0.98075 -0.3965,0.77501 -0.71643,0.97998 -1.525134,0.97715 -0.562862,-0.002 -1.252154,0.0925 -1.53176,0.21005 -0.292524,0.12294 -0.940091,-0.0857 -1.525135,-0.49149 z"
       style="fill:#94add6;fill-opacity:1;stroke-width:0.264583"
       id="path1312" />
  </g>
</svg>
